<svg width="32" height="32" viewBox="0 0 32 32" fill="none" xmlns="http://www.w3.org/2000/svg">
<path id="Vector" d="M27.3147 4.68726C25.0771 2.44937 22.2262 0.925256 19.1225 0.307656C16.0187 -0.309944 12.8015 0.00674071 9.87772 1.21766C6.95394 2.42857 4.45491 4.47937 2.69669 7.11057C0.938457 9.74183 0 12.8354 0 16C0 19.1646 0.938457 22.2582 2.69669 24.8894C4.45491 27.5206 6.95394 29.5714 9.87772 30.7823C12.8015 31.9933 16.0187 32.3099 19.1225 31.6923C22.2262 31.0747 25.0771 29.5506 27.3147 27.3127C30.3147 24.3122 32 20.243 32 16C32 11.757 30.3147 7.68777 27.3147 4.68726ZM4.17286 10.5854C4.97909 8.7972 6.17371 7.21109 7.66994 5.94251C9.16611 4.67394 10.9262 3.75474 12.8222 3.25183C14.7183 2.74891 16.7026 2.67491 18.6308 3.0352C20.559 3.39549 22.3827 4.18097 23.9693 5.33457C20.0419 4.96366 15.1256 6.97091 11.1402 10.9491C9.636 12.4508 8.36166 14.1663 7.35834 16.04C5.99372 14.4165 4.9164 12.5717 4.17286 10.5854ZM12.9947 29.1454C9.95789 28.3318 7.31069 26.4621 5.52851 23.8721C3.74634 21.2821 2.94594 18.1416 3.27109 15.0145C4.92194 18.6 9.08926 21.8582 14.5583 23.3127C16.6001 23.8666 18.7131 24.1117 20.8274 24.04C20.1089 26.0277 19.0589 27.8793 17.7219 29.5163C16.1359 29.6768 14.5338 29.5462 12.9947 29.1309V29.1454ZM22.9511 13.9382C22.4119 11.8873 21.5739 9.92686 20.4638 8.12C22.5432 7.74983 24.6703 7.73509 26.7547 8.07634C27.6877 9.36794 28.3754 10.8199 28.7838 12.36C29.5988 15.3973 29.304 18.6256 27.9523 21.465C26.6006 24.3043 24.2806 26.5686 21.4093 27.8509C23.6783 24.6437 24.4056 19.3854 22.9511 13.9382Z" fill="#E3E0D1"/>
</svg>
